<?xml version="1.0" standalone="no"?>
<!DOCTYPE svg PUBLIC "-//W3C//DTD SVG 20010904//EN"
 "http://www.w3.org/TR/2001/REC-SVG-20010904/DTD/svg10.dtd">
<svg version="1.0" xmlns="http://www.w3.org/2000/svg"
 width="1913.000000pt" height="1913.000000pt" viewBox="0 0 1913.000000 1913.000000"
 preserveAspectRatio="xMidYMid meet">
<metadata>
Created by potrace 1.11, written by Peter Selinger 2001-2013
</metadata>
<g transform="translate(0.000000,1913.000000) scale(0.100000,-0.100000)"
fill="#000000" stroke="none">
<path d="M14 16793 c-15 -215 -9 -661 10 -807 37 -284 104 -518 211 -731 83
-164 172 -290 303 -426 173 -180 339 -300 593 -429 265 -135 491 -220 1002
-380 720 -226 1347 -444 1492 -518 309 -159 520 -441 542 -724 11 -144 -34
-318 -119 -462 -47 -80 -159 -247 -195 -289 -24 -30 -23 -47 3 -47 8 0 42 14
75 30 135 68 265 159 367 254 l52 49 0 842 0 843 -67 60 c-199 175 -389 282
-683 383 -148 51 -332 104 -990 284 -294 81 -600 167 -680 191 -1148 356
-1704 915 -1850 1861 -11 70 -20 131 -20 136 0 4 -9 7 -19 7 -17 0 -20 -12
-27 -127z"/>
<path d="M19066 16898 c-3 -13 -12 -72 -21 -131 -85 -566 -344 -1015 -771
-1337 -221 -167 -469 -296 -824 -428 -184 -68 -348 -116 -1026 -302 -846 -232
-995 -280 -1210 -388 -116 -58 -276 -169 -366 -252 l-78 -72 0 -837 0 -837 64
-57 c89 -78 201 -157 317 -223 77 -44 105 -55 125 -50 l26 7 -34 42 c-64 80
-188 275 -228 359 -63 131 -83 228 -78 367 4 98 10 129 36 200 44 116 112 221
212 325 93 96 231 195 345 246 146 66 586 215 1610 545 746 241 1101 426 1405
734 143 145 230 266 320 444 185 368 262 838 231 1413 -13 237 -16 254 -36
254 -8 0 -17 -10 -19 -22z"/>
<path d="M400 14474 c0 -20 9 -82 21 -137 60 -298 190 -538 409 -758 213 -213
451 -341 799 -429 246 -61 473 -90 991 -125 527 -35 894 -76 998 -111 161 -54
238 -131 343 -346 18 -38 36 -68 40 -68 13 0 29 99 29 173 -1 190 -88 380
-237 517 -124 114 -327 224 -538 293 -146 48 -207 63 -635 152 -770 161 -903
197 -1113 300 -62 30 -154 82 -206 115 -51 34 -102 60 -113 58 -18 -3 -17 -7
13 -53 52 -80 215 -237 309 -298 98 -63 210 -121 337 -173 148 -61 133 -59
-151 23 -563 161 -917 378 -1166 714 -32 43 -72 103 -90 133 -17 31 -33 56
-36 56 -2 0 -4 -16 -4 -36z"/>
<path d="M18707 14488 c-117 -189 -212 -306 -336 -414 -206 -179 -458 -314
-795 -423 -121 -40 -375 -111 -392 -111 -5 0 44 23 109 50 230 96 371 183 502
315 81 81 155 174 155 197 0 20 -40 4 -127 -53 -122 -79 -311 -169 -443 -213
-117 -38 -379 -98 -895 -206 -520 -108 -666 -150 -865 -250 -134 -67 -242
-143 -321 -228 -138 -147 -190 -266 -197 -452 -4 -108 8 -200 26 -200 4 0 33
52 65 115 100 197 201 280 387 319 124 25 490 61 1000 96 703 49 1019 114
1340 275 432 216 733 635 801 1113 12 89 9 107 -14 70z"/>
<path d="M4700 13134 l0 -859 1872 4 c1030 1 1919 0 1975 -4 l103 -7 0 -2779
0 -2779 885 0 885 0 0 2785 0 2785 2025 0 2025 0 0 850 0 850 -3107 0 c-1710
0 -3908 3 -4885 7 l-1778 6 0 -859z"/>
<path d="M1748 12913 c-29 -7 -21 -20 35 -62 119 -89 337 -175 535 -210 128
-23 272 -37 522 -51 503 -28 652 -50 781 -115 60 -30 133 -93 169 -144 19 -28
38 -50 41 -51 16 -1 31 96 27 172 -3 70 -9 93 -38 146 -38 72 -121 153 -197
195 -28 15 -86 36 -129 47 -72 19 -109 20 -618 18 -539 -1 -700 5 -956 38 -63
8 -124 16 -135 18 -11 2 -28 1 -37 -1z"/>
<path d="M17305 12909 c-237 -41 -671 -60 -1195 -52 -332 5 -384 4 -453 -11
-165 -37 -294 -131 -358 -262 -31 -62 -34 -77 -33 -154 0 -52 6 -98 15 -119
l15 -34 39 52 c74 102 179 166 327 201 85 20 320 44 533 55 391 20 560 39 728
81 171 43 313 105 420 185 53 39 57 45 41 56 -10 7 -20 12 -23 12 -3 -1 -28
-5 -56 -10z"/>
<path d="M4700 6840 l0 -4590 1160 0 1160 0 0 4590 0 4590 -1160 0 -1160 0 0
-4590z"/>
<path d="M12130 6840 l0 -4590 1170 0 1170 0 0 4590 0 4590 -1170 0 -1170 0 0
-4590z"/>
<path d="M8650 3865 l0 -1655 885 0 885 0 0 1655 0 1655 -885 0 -885 0 0
-1655z"/>
</g>
</svg>
